{
    "asset" : {
        "generator" : "Khronos glTF Blender I/O v1.2.75",
        "version" : "2.0"
    },
    "scene" : 0,
    "scenes" : [
        {
            "name" : "Scene",
            "nodes" : [
                0
            ]
        }
    ],
    "nodes" : [
        {
            "mesh" : 0,
            "name" : "Foilage.001"
        }
    ],
    "materials" : [
        {
            "doubleSided" : true,
            "emissiveFactor" : [
                0,
                0,
                0
            ],
            "name" : "bush2",
            "pbrMetallicRoughness" : {
                "baseColorFactor" : [
                    0.1956520527601242,
                    0.8000000715255737,
                    0.4284719228744507,
                    1
                ],
                "metallicFactor" : 0,
                "roughnessFactor" : 0.5
            }
        }
    ],
    "meshes" : [
        {
            "name" : "Cube.004",
            "primitives" : [
                {
                    "attributes" : {
                        "POSITION" : 0,
                        "NORMAL" : 1,
                        "TEXCOORD_0" : 2
                    },
                    "indices" : 3,
                    "material" : 0
                }
            ]
        }
    ],
    "accessors" : [
        {
            "bufferView" : 0,
            "componentType" : 5126,
            "count" : 4375,
            "max" : [
                14.161419868469238,
                16.395933151245117,
                16.3221435546875
            ],
            "min" : [
                -16.408355712890625,
                -14.189210891723633,
                -14.600985527038574
            ],
            "type" : "VEC3"
        },
        {
            "bufferView" : 1,
            "componentType" : 5126,
            "count" : 4375,
            "type" : "VEC3"
        },
        {
            "bufferView" : 2,
            "componentType" : 5126,
            "count" : 4375,
            "type" : "VEC2"
        },
        {
            "bufferView" : 3,
            "componentType" : 5123,
            "count" : 20160,
            "type" : "SCALAR"
        }
    ],
    "bufferViews" : [
        {
            "buffer" : 0,
            "byteLength" : 52500,
            "byteOffset" : 0
        },
        {
            "buffer" : 0,
            "byteLength" : 52500,
            "byteOffset" : 52500
        },
        {
            "buffer" : 0,
            "byteLength" : 35000,
            "byteOffset" : 105000
        },
        {
            "buffer" : 0,
            "byteLength" : 40320,
            "byteOffset" : 140000
        }
    ],
    "buffers" : [
        {
            "byteLength" : 180320,
            "uri" : "bush3.bin"
        }
    ]
}
