{
    "asset" : {
        "generator" : "Khronos glTF Blender I/O v1.4.40",
        "version" : "2.0"
    },
    "scene" : 0,
    "scenes" : [
        {
            "name" : "Scene",
            "nodes" : [
                0,
                1
            ]
        }
    ],
    "nodes" : [
        {
            "mesh" : 0,
            "name" : "Pillar1.001"
        },
        {
            "mesh" : 1,
            "name" : "Pillar1-colonly.001"
        }
    ],
    "meshes" : [
        {
            "name" : "Cylinder.014",
            "primitives" : [
                {
                    "attributes" : {
                        "POSITION" : 0,
                        "NORMAL" : 1,
                        "TEXCOORD_0" : 2
                    },
                    "indices" : 3
                }
            ]
        },
        {
            "name" : "Cylinder.015",
            "primitives" : [
                {
                    "attributes" : {
                        "POSITION" : 4,
                        "NORMAL" : 5,
                        "TEXCOORD_0" : 6
                    },
                    "indices" : 7
                }
            ]
        }
    ],
    "accessors" : [
        {
            "bufferView" : 0,
            "componentType" : 5126,
            "count" : 372,
            "max" : [
                20.43068504333496,
                48.75471496582031,
                14.446680068969727
            ],
            "min" : [
                -20.43068504333496,
                -48.75471496582031,
                -20.43068504333496
            ],
            "type" : "VEC3"
        },
        {
            "bufferView" : 1,
            "componentType" : 5126,
            "count" : 372,
            "type" : "VEC3"
        },
        {
            "bufferView" : 2,
            "componentType" : 5126,
            "count" : 372,
            "type" : "VEC2"
        },
        {
            "bufferView" : 3,
            "componentType" : 5123,
            "count" : 378,
            "type" : "SCALAR"
        },
        {
            "bufferView" : 4,
            "componentType" : 5126,
            "count" : 133,
            "max" : [
                20.43068504333496,
                48.75471496582031,
                14.446680068969727
            ],
            "min" : [
                -20.43068504333496,
                -48.75471496582031,
                -20.43068504333496
            ],
            "type" : "VEC3"
        },
        {
            "bufferView" : 5,
            "componentType" : 5126,
            "count" : 133,
            "type" : "VEC3"
        },
        {
            "bufferView" : 6,
            "componentType" : 5126,
            "count" : 133,
            "type" : "VEC2"
        },
        {
            "bufferView" : 7,
            "componentType" : 5123,
            "count" : 378,
            "type" : "SCALAR"
        }
    ],
    "bufferViews" : [
        {
            "buffer" : 0,
            "byteLength" : 4464,
            "byteOffset" : 0
        },
        {
            "buffer" : 0,
            "byteLength" : 4464,
            "byteOffset" : 4464
        },
        {
            "buffer" : 0,
            "byteLength" : 2976,
            "byteOffset" : 8928
        },
        {
            "buffer" : 0,
            "byteLength" : 756,
            "byteOffset" : 11904
        },
        {
            "buffer" : 0,
            "byteLength" : 1596,
            "byteOffset" : 12660
        },
        {
            "buffer" : 0,
            "byteLength" : 1596,
            "byteOffset" : 14256
        },
        {
            "buffer" : 0,
            "byteLength" : 1064,
            "byteOffset" : 15852
        },
        {
            "buffer" : 0,
            "byteLength" : 756,
            "byteOffset" : 16916
        }
    ],
    "buffers" : [
        {
            "byteLength" : 17672,
            "uri" : "flat_bias_pillar_1.bin"
        }
    ]
}
