{
    "asset" : {
        "generator" : "Khronos glTF Blender I/O v1.4.40",
        "version" : "2.0"
    },
    "scene" : 0,
    "scenes" : [
        {
            "name" : "Scene",
            "nodes" : [
                0,
                1,
                2,
                3
            ]
        }
    ],
    "nodes" : [
        {
            "mesh" : 0,
            "name" : "Island1-col",
            "translation" : [
                30.328393936157227,
                -2.8318941593170166,
                -29.94556427001953
            ]
        },
        {
            "mesh" : 1,
            "name" : "Island2-col",
            "rotation" : [
                0,
                -0.5592941641807556,
                0,
                0.8289692401885986
            ],
            "translation" : [
                88.47235107421875,
                1.518509864807129,
                -66.3196029663086
            ]
        },
        {
            "mesh" : 2,
            "name" : "Island3-col",
            "rotation" : [
                0,
                -0.20585788786411285,
                0,
                0.9785819053649902
            ],
            "translation" : [
                108.44436645507812,
                -16.46660614013672,
                -4.617250442504883
            ]
        },
        {
            "mesh" : 3,
            "name" : "Island4-col",
            "rotation" : [
                0,
                -0.20585788786411285,
                0,
                0.9785819053649902
            ],
            "translation" : [
                123.17133331298828,
                -10.204524993896484,
                -25.15487289428711
            ]
        }
    ],
    "meshes" : [
        {
            "name" : "Icosphere",
            "primitives" : [
                {
                    "attributes" : {
                        "POSITION" : 0,
                        "NORMAL" : 1,
                        "TEXCOORD_0" : 2,
                        "TEXCOORD_1" : 3
                    },
                    "indices" : 4
                },
                {
                    "attributes" : {
                        "POSITION" : 5,
                        "NORMAL" : 6,
                        "TEXCOORD_0" : 7,
                        "TEXCOORD_1" : 8
                    },
                    "indices" : 9
                }
            ]
        },
        {
            "name" : "Icosphere.003",
            "primitives" : [
                {
                    "attributes" : {
                        "POSITION" : 10,
                        "NORMAL" : 11,
                        "TEXCOORD_0" : 12
                    },
                    "indices" : 13
                },
                {
                    "attributes" : {
                        "POSITION" : 14,
                        "NORMAL" : 15,
                        "TEXCOORD_0" : 16
                    },
                    "indices" : 17
                }
            ]
        },
        {
            "name" : "Icosphere.004",
            "primitives" : [
                {
                    "attributes" : {
                        "POSITION" : 18,
                        "NORMAL" : 19,
                        "TEXCOORD_0" : 20
                    },
                    "indices" : 21
                },
                {
                    "attributes" : {
                        "POSITION" : 22,
                        "NORMAL" : 23,
                        "TEXCOORD_0" : 24
                    },
                    "indices" : 25
                }
            ]
        },
        {
            "name" : "Icosphere.005",
            "primitives" : [
                {
                    "attributes" : {
                        "POSITION" : 26,
                        "NORMAL" : 27,
                        "TEXCOORD_0" : 28
                    },
                    "indices" : 29
                },
                {
                    "attributes" : {
                        "POSITION" : 30,
                        "NORMAL" : 31,
                        "TEXCOORD_0" : 32
                    },
                    "indices" : 33
                }
            ]
        }
    ],
    "accessors" : [
        {
            "bufferView" : 0,
            "componentType" : 5126,
            "count" : 338,
            "max" : [
                14.884252548217773,
                7.241711139678955,
                52.17819595336914
            ],
            "min" : [
                -63.32085037231445,
                -92.46558380126953,
                -49.14406204223633
            ],
            "type" : "VEC3"
        },
        {
            "bufferView" : 1,
            "componentType" : 5126,
            "count" : 338,
            "type" : "VEC3"
        },
        {
            "bufferView" : 2,
            "componentType" : 5126,
            "count" : 338,
            "type" : "VEC2"
        },
        {
            "bufferView" : 3,
            "componentType" : 5126,
            "count" : 338,
            "type" : "VEC2"
        },
        {
            "bufferView" : 4,
            "componentType" : 5123,
            "count" : 846,
            "type" : "SCALAR"
        },
        {
            "bufferView" : 5,
            "componentType" : 5126,
            "count" : 256,
            "max" : [
                15.809273719787598,
                9.646354675292969,
                53.97388458251953
            ],
            "min" : [
                -64.35882568359375,
                -17.94313621520996,
                -49.075721740722656
            ],
            "type" : "VEC3"
        },
        {
            "bufferView" : 6,
            "componentType" : 5126,
            "count" : 256,
            "type" : "VEC3"
        },
        {
            "bufferView" : 7,
            "componentType" : 5126,
            "count" : 256,
            "type" : "VEC2"
        },
        {
            "bufferView" : 8,
            "componentType" : 5126,
            "count" : 256,
            "type" : "VEC2"
        },
        {
            "bufferView" : 9,
            "componentType" : 5123,
            "count" : 780,
            "type" : "SCALAR"
        },
        {
            "bufferView" : 10,
            "componentType" : 5126,
            "count" : 192,
            "max" : [
                21.46816635131836,
                -8.121298789978027,
                39.23518371582031
            ],
            "min" : [
                -50.82212448120117,
                -73.24665832519531,
                -31.255191802978516
            ],
            "type" : "VEC3"
        },
        {
            "bufferView" : 11,
            "componentType" : 5126,
            "count" : 192,
            "type" : "VEC3"
        },
        {
            "bufferView" : 12,
            "componentType" : 5126,
            "count" : 192,
            "type" : "VEC2"
        },
        {
            "bufferView" : 13,
            "componentType" : 5123,
            "count" : 567,
            "type" : "SCALAR"
        },
        {
            "bufferView" : 14,
            "componentType" : 5126,
            "count" : 115,
            "max" : [
                21.46816635131836,
                -7.393074035644531,
                39.57275390625
            ],
            "min" : [
                -52.35127639770508,
                -23.210508346557617,
                -31.14946174621582
            ],
            "type" : "VEC3"
        },
        {
            "bufferView" : 15,
            "componentType" : 5126,
            "count" : 115,
            "type" : "VEC3"
        },
        {
            "bufferView" : 16,
            "componentType" : 5126,
            "count" : 115,
            "type" : "VEC2"
        },
        {
            "bufferView" : 17,
            "componentType" : 5123,
            "count" : 567,
            "type" : "SCALAR"
        },
        {
            "bufferView" : 18,
            "componentType" : 5126,
            "count" : 212,
            "max" : [
                10.48262882232666,
                8.6719331741333,
                23.486589431762695
            ],
            "min" : [
                -6.517789840698242,
                -26.322668075561523,
                -8.637847900390625
            ],
            "type" : "VEC3"
        },
        {
            "bufferView" : 19,
            "componentType" : 5126,
            "count" : 212,
            "type" : "VEC3"
        },
        {
            "bufferView" : 20,
            "componentType" : 5126,
            "count" : 212,
            "type" : "VEC2"
        },
        {
            "bufferView" : 21,
            "componentType" : 5123,
            "count" : 309,
            "type" : "SCALAR"
        },
        {
            "bufferView" : 22,
            "componentType" : 5126,
            "count" : 38,
            "max" : [
                10.85142707824707,
                8.6719331741333,
                23.486589431762695
            ],
            "min" : [
                -6.517789840698242,
                -1.786277174949646,
                -8.637847900390625
            ],
            "type" : "VEC3"
        },
        {
            "bufferView" : 23,
            "componentType" : 5126,
            "count" : 38,
            "type" : "VEC3"
        },
        {
            "bufferView" : 24,
            "componentType" : 5126,
            "count" : 38,
            "type" : "VEC2"
        },
        {
            "bufferView" : 25,
            "componentType" : 5123,
            "count" : 123,
            "type" : "SCALAR"
        },
        {
            "bufferView" : 26,
            "componentType" : 5126,
            "count" : 179,
            "max" : [
                10.48262882232666,
                8.857093811035156,
                -5.036278247833252
            ],
            "min" : [
                -3.3665146827697754,
                -25.09713363647461,
                -25.97663116455078
            ],
            "type" : "VEC3"
        },
        {
            "bufferView" : 27,
            "componentType" : 5126,
            "count" : 179,
            "type" : "VEC3"
        },
        {
            "bufferView" : 28,
            "componentType" : 5126,
            "count" : 179,
            "type" : "VEC2"
        },
        {
            "bufferView" : 29,
            "componentType" : 5123,
            "count" : 234,
            "type" : "SCALAR"
        },
        {
            "bufferView" : 30,
            "componentType" : 5126,
            "count" : 36,
            "max" : [
                10.48262882232666,
                8.857093811035156,
                -5.03627872467041
            ],
            "min" : [
                -3.3665101528167725,
                3.4922196865081787,
                -25.97663116455078
            ],
            "type" : "VEC3"
        },
        {
            "bufferView" : 31,
            "componentType" : 5126,
            "count" : 36,
            "type" : "VEC3"
        },
        {
            "bufferView" : 32,
            "componentType" : 5126,
            "count" : 36,
            "type" : "VEC2"
        },
        {
            "bufferView" : 33,
            "componentType" : 5123,
            "count" : 96,
            "type" : "SCALAR"
        }
    ],
    "bufferViews" : [
        {
            "buffer" : 0,
            "byteLength" : 4056,
            "byteOffset" : 0
        },
        {
            "buffer" : 0,
            "byteLength" : 4056,
            "byteOffset" : 4056
        },
        {
            "buffer" : 0,
            "byteLength" : 2704,
            "byteOffset" : 8112
        },
        {
            "buffer" : 0,
            "byteLength" : 2704,
            "byteOffset" : 10816
        },
        {
            "buffer" : 0,
            "byteLength" : 1692,
            "byteOffset" : 13520
        },
        {
            "buffer" : 0,
            "byteLength" : 3072,
            "byteOffset" : 15212
        },
        {
            "buffer" : 0,
            "byteLength" : 3072,
            "byteOffset" : 18284
        },
        {
            "buffer" : 0,
            "byteLength" : 2048,
            "byteOffset" : 21356
        },
        {
            "buffer" : 0,
            "byteLength" : 2048,
            "byteOffset" : 23404
        },
        {
            "buffer" : 0,
            "byteLength" : 1560,
            "byteOffset" : 25452
        },
        {
            "buffer" : 0,
            "byteLength" : 2304,
            "byteOffset" : 27012
        },
        {
            "buffer" : 0,
            "byteLength" : 2304,
            "byteOffset" : 29316
        },
        {
            "buffer" : 0,
            "byteLength" : 1536,
            "byteOffset" : 31620
        },
        {
            "buffer" : 0,
            "byteLength" : 1134,
            "byteOffset" : 33156
        },
        {
            "buffer" : 0,
            "byteLength" : 1380,
            "byteOffset" : 34292
        },
        {
            "buffer" : 0,
            "byteLength" : 1380,
            "byteOffset" : 35672
        },
        {
            "buffer" : 0,
            "byteLength" : 920,
            "byteOffset" : 37052
        },
        {
            "buffer" : 0,
            "byteLength" : 1134,
            "byteOffset" : 37972
        },
        {
            "buffer" : 0,
            "byteLength" : 2544,
            "byteOffset" : 39108
        },
        {
            "buffer" : 0,
            "byteLength" : 2544,
            "byteOffset" : 41652
        },
        {
            "buffer" : 0,
            "byteLength" : 1696,
            "byteOffset" : 44196
        },
        {
            "buffer" : 0,
            "byteLength" : 618,
            "byteOffset" : 45892
        },
        {
            "buffer" : 0,
            "byteLength" : 456,
            "byteOffset" : 46512
        },
        {
            "buffer" : 0,
            "byteLength" : 456,
            "byteOffset" : 46968
        },
        {
            "buffer" : 0,
            "byteLength" : 304,
            "byteOffset" : 47424
        },
        {
            "buffer" : 0,
            "byteLength" : 246,
            "byteOffset" : 47728
        },
        {
            "buffer" : 0,
            "byteLength" : 2148,
            "byteOffset" : 47976
        },
        {
            "buffer" : 0,
            "byteLength" : 2148,
            "byteOffset" : 50124
        },
        {
            "buffer" : 0,
            "byteLength" : 1432,
            "byteOffset" : 52272
        },
        {
            "buffer" : 0,
            "byteLength" : 468,
            "byteOffset" : 53704
        },
        {
            "buffer" : 0,
            "byteLength" : 432,
            "byteOffset" : 54172
        },
        {
            "buffer" : 0,
            "byteLength" : 432,
            "byteOffset" : 54604
        },
        {
            "buffer" : 0,
            "byteLength" : 288,
            "byteOffset" : 55036
        },
        {
            "buffer" : 0,
            "byteLength" : 192,
            "byteOffset" : 55324
        }
    ],
    "buffers" : [
        {
            "byteLength" : 55516,
            "uri" : "data:application/octet-stream;base64,"
        }
    ]
}
