{
    "asset" : {
        "generator" : "Khronos glTF Blender I/O v1.4.40",
        "version" : "2.0"
    },
    "scene" : 0,
    "scenes" : [
        {
            "name" : "Scene",
            "nodes" : [
                0
            ]
        }
    ],
    "nodes" : [
        {
            "mesh" : 0,
            "name" : "Trunk.001",
            "scale" : [
                0.09912853688001633,
                0.09912853688001633,
                0.09912853688001633
            ]
        }
    ],
    "meshes" : [
        {
            "name" : "Cube.002",
            "primitives" : [
                {
                    "attributes" : {
                        "POSITION" : 0,
                        "NORMAL" : 1,
                        "TEXCOORD_0" : 2
                    },
                    "indices" : 3
                }
            ]
        }
    ],
    "accessors" : [
        {
            "bufferView" : 0,
            "componentType" : 5126,
            "count" : 171,
            "max" : [
                19.625560760498047,
                63.15447998046875,
                11.264100074768066
            ],
            "min" : [
                -10.734935760498047,
                -6.767507553100586,
                -13.856518745422363
            ],
            "type" : "VEC3"
        },
        {
            "bufferView" : 1,
            "componentType" : 5126,
            "count" : 171,
            "type" : "VEC3"
        },
        {
            "bufferView" : 2,
            "componentType" : 5126,
            "count" : 171,
            "type" : "VEC2"
        },
        {
            "bufferView" : 3,
            "componentType" : 5123,
            "count" : 411,
            "type" : "SCALAR"
        }
    ],
    "bufferViews" : [
        {
            "buffer" : 0,
            "byteLength" : 2052,
            "byteOffset" : 0
        },
        {
            "buffer" : 0,
            "byteLength" : 2052,
            "byteOffset" : 2052
        },
        {
            "buffer" : 0,
            "byteLength" : 1368,
            "byteOffset" : 4104
        },
        {
            "buffer" : 0,
            "byteLength" : 822,
            "byteOffset" : 5472
        }
    ],
    "buffers" : [
        {
            "byteLength" : 6296,
            "uri" : "trunk.bin"
        }
    ]
}
