{
    "asset" : {
        "generator" : "Khronos glTF Blender I/O v1.4.40",
        "version" : "2.0"
    },
    "scene" : 0,
    "scenes" : [
        {
            "name" : "Scene",
            "nodes" : [
                71
            ]
        }
    ],
    "nodes" : [
        {
            "name" : "End",
            "translation" : [
                0,
                0.028965353965759277,
                0
            ]
        },
        {
            "children" : [
                0
            ],
            "name" : "Bone.001",
            "translation" : [
                0,
                0.028965353965759277,
                0
            ]
        },
        {
            "children" : [
                1
            ],
            "name" : "Bone.002",
            "translation" : [
                0,
                0.028965413570404053,
                0
            ]
        },
        {
            "children" : [
                2
            ],
            "name" : "Bone.003",
            "translation" : [
                0,
                0.028965294361114502,
                0
            ]
        },
        {
            "children" : [
                3
            ],
            "name" : "Bone.004",
            "translation" : [
                0,
                0.028965294361114502,
                0
            ]
        },
        {
            "children" : [
                4
            ],
            "name" : "Bone.005",
            "translation" : [
                0,
                0.028965294361114502,
                0
            ]
        },
        {
            "children" : [
                5
            ],
            "name" : "Bone.006",
            "translation" : [
                0,
                0.028965294361114502,
                0
            ]
        },
        {
            "children" : [
                6
            ],
            "name" : "Bone.007",
            "translation" : [
                0,
                0.028965294361114502,
                0
            ]
        },
        {
            "children" : [
                7
            ],
            "name" : "Bone.008",
            "translation" : [
                0,
                0.028965294361114502,
                0
            ]
        },
        {
            "children" : [
                8
            ],
            "name" : "Bone.009",
            "translation" : [
                0,
                0.028965294361114502,
                0
            ]
        },
        {
            "children" : [
                9
            ],
            "name" : "Bone.010",
            "translation" : [
                0,
                0.028965294361114502,
                0
            ]
        },
        {
            "children" : [
                10
            ],
            "name" : "Bone.011",
            "translation" : [
                0,
                0.028965234756469727,
                0
            ]
        },
        {
            "children" : [
                11
            ],
            "name" : "Bone.012",
            "translation" : [
                0,
                0.028965294361114502,
                0
            ]
        },
        {
            "children" : [
                12
            ],
            "name" : "Bone.013",
            "translation" : [
                0,
                0.028965294361114502,
                0
            ]
        },
        {
            "children" : [
                13
            ],
            "name" : "Bone.014",
            "translation" : [
                0,
                0.028965294361114502,
                0
            ]
        },
        {
            "children" : [
                14
            ],
            "name" : "Bone.015",
            "translation" : [
                0,
                0.028965294361114502,
                0
            ]
        },
        {
            "children" : [
                15
            ],
            "name" : "Bone.016",
            "translation" : [
                0,
                0.028965234756469727,
                0
            ]
        },
        {
            "children" : [
                16
            ],
            "name" : "Bone.017",
            "translation" : [
                0,
                0.028965264558792114,
                0
            ]
        },
        {
            "children" : [
                17
            ],
            "name" : "Bone.018",
            "translation" : [
                0,
                0.028965294361114502,
                0
            ]
        },
        {
            "children" : [
                18
            ],
            "name" : "Bone.019",
            "translation" : [
                0,
                0.028965264558792114,
                0
            ]
        },
        {
            "children" : [
                19
            ],
            "name" : "Bone.020",
            "translation" : [
                0,
                0.028965294361114502,
                0
            ]
        },
        {
            "children" : [
                20
            ],
            "name" : "Bone.021",
            "translation" : [
                0,
                0.028965234756469727,
                0
            ]
        },
        {
            "children" : [
                21
            ],
            "name" : "Bone.022",
            "translation" : [
                0,
                0.028965264558792114,
                0
            ]
        },
        {
            "children" : [
                22
            ],
            "name" : "Bone.023",
            "translation" : [
                0,
                0.028965264558792114,
                0
            ]
        },
        {
            "children" : [
                23
            ],
            "name" : "Bone.024",
            "scale" : [
                1,
                0.9999999403953552,
                1
            ],
            "translation" : [
                0,
                0.028965264558792114,
                0
            ]
        },
        {
            "children" : [
                24
            ],
            "name" : "Bone.025",
            "translation" : [
                0,
                0.02896524965763092,
                0
            ]
        },
        {
            "children" : [
                25
            ],
            "name" : "Bone.026",
            "translation" : [
                0,
                0.02896524965763092,
                0
            ]
        },
        {
            "children" : [
                26
            ],
            "name" : "Bone.027",
            "translation" : [
                0,
                0.02896524965763092,
                0
            ]
        },
        {
            "children" : [
                27
            ],
            "name" : "Bone.028",
            "scale" : [
                1,
                0.9999999403953552,
                1
            ],
            "translation" : [
                0,
                0.028965219855308533,
                0
            ]
        },
        {
            "children" : [
                28
            ],
            "name" : "Bone.029",
            "translation" : [
                0,
                0.02896524965763092,
                0
            ]
        },
        {
            "children" : [
                29
            ],
            "name" : "Bone.030",
            "translation" : [
                0,
                0.028965234756469727,
                0
            ]
        },
        {
            "children" : [
                30
            ],
            "name" : "Bone.031",
            "translation" : [
                0,
                0.028965234756469727,
                0
            ]
        },
        {
            "children" : [
                31
            ],
            "name" : "Bone.032",
            "translation" : [
                0,
                0.028965242207050323,
                0
            ]
        },
        {
            "children" : [
                32
            ],
            "name" : "Bone.033",
            "translation" : [
                0,
                0.028965234756469727,
                0
            ]
        },
        {
            "children" : [
                33
            ],
            "name" : "Bone.034",
            "translation" : [
                0,
                0.02896524965763092,
                0
            ]
        },
        {
            "children" : [
                34
            ],
            "name" : "Bone.035",
            "translation" : [
                0,
                0.02896522916853428,
                0
            ]
        },
        {
            "children" : [
                35
            ],
            "name" : "Bone.036",
            "translation" : [
                0,
                0.028965231031179428,
                0
            ]
        },
        {
            "children" : [
                36
            ],
            "name" : "Bone.037",
            "translation" : [
                0,
                0.02896520495414734,
                0
            ]
        },
        {
            "children" : [
                37
            ],
            "name" : "Bone.038",
            "translation" : [
                0,
                0.02896524965763092,
                0
            ]
        },
        {
            "children" : [
                38
            ],
            "name" : "Bone.039",
            "scale" : [
                1,
                0.9999999403953552,
                1
            ],
            "translation" : [
                0,
                0.02896520495414734,
                0
            ]
        },
        {
            "children" : [
                39
            ],
            "name" : "Bone.040",
            "translation" : [
                0,
                0.02896524965763092,
                0
            ]
        },
        {
            "children" : [
                40
            ],
            "name" : "Bone.041",
            "translation" : [
                0,
                0.02896520495414734,
                0
            ]
        },
        {
            "children" : [
                41
            ],
            "name" : "Bone.042",
            "translation" : [
                0,
                0.028965234756469727,
                0
            ]
        },
        {
            "children" : [
                42
            ],
            "name" : "Bone.043",
            "translation" : [
                0,
                0.02896520495414734,
                0
            ]
        },
        {
            "children" : [
                43
            ],
            "name" : "Bone.044",
            "translation" : [
                0,
                0.02896520495414734,
                0
            ]
        },
        {
            "children" : [
                44
            ],
            "name" : "Bone.045",
            "translation" : [
                0,
                0.028965234756469727,
                0
            ]
        },
        {
            "children" : [
                45
            ],
            "name" : "Bone.046",
            "translation" : [
                0,
                0.02896520495414734,
                0
            ]
        },
        {
            "children" : [
                46
            ],
            "name" : "Bone.047",
            "translation" : [
                0,
                0.028965264558792114,
                0
            ]
        },
        {
            "children" : [
                47
            ],
            "name" : "Bone.048",
            "translation" : [
                0,
                0.028965234756469727,
                0
            ]
        },
        {
            "children" : [
                48
            ],
            "name" : "Bone.049",
            "translation" : [
                0,
                0.02896520495414734,
                0
            ]
        },
        {
            "children" : [
                49
            ],
            "name" : "Bone.050",
            "translation" : [
                0,
                0.028965264558792114,
                0
            ]
        },
        {
            "children" : [
                50
            ],
            "name" : "Bone.051",
            "translation" : [
                0,
                0.02896520495414734,
                0
            ]
        },
        {
            "children" : [
                51
            ],
            "name" : "Bone.052",
            "translation" : [
                0,
                0.028965234756469727,
                0
            ]
        },
        {
            "children" : [
                52
            ],
            "name" : "Bone.053",
            "translation" : [
                0,
                0.028965234756469727,
                0
            ]
        },
        {
            "children" : [
                53
            ],
            "name" : "Bone.054",
            "translation" : [
                0,
                0.02896517515182495,
                0
            ]
        },
        {
            "children" : [
                54
            ],
            "name" : "Bone.055",
            "translation" : [
                0,
                0.028965294361114502,
                0
            ]
        },
        {
            "children" : [
                55
            ],
            "name" : "Bone.056",
            "translation" : [
                0,
                0.028965294361114502,
                0
            ]
        },
        {
            "children" : [
                56
            ],
            "name" : "Bone.057",
            "translation" : [
                0,
                0.028965294361114502,
                0
            ]
        },
        {
            "children" : [
                57
            ],
            "name" : "Bone.058",
            "translation" : [
                0,
                0.028965234756469727,
                0
            ]
        },
        {
            "children" : [
                58
            ],
            "name" : "Bone.059",
            "translation" : [
                0,
                0.028965234756469727,
                0
            ]
        },
        {
            "children" : [
                59
            ],
            "name" : "Bone.060",
            "translation" : [
                0,
                0.028965234756469727,
                0
            ]
        },
        {
            "children" : [
                60
            ],
            "name" : "Bone.061",
            "translation" : [
                0,
                0.028965115547180176,
                0
            ]
        },
        {
            "children" : [
                61
            ],
            "name" : "Bone.062",
            "translation" : [
                0,
                0.028965234756469727,
                0
            ]
        },
        {
            "children" : [
                62
            ],
            "name" : "Bone.063",
            "translation" : [
                0,
                0.028965115547180176,
                0
            ]
        },
        {
            "children" : [
                63
            ],
            "name" : "Bone.064",
            "translation" : [
                0,
                0.028965234756469727,
                0
            ]
        },
        {
            "children" : [
                64
            ],
            "name" : "Bone.065",
            "translation" : [
                0,
                0.028965115547180176,
                0
            ]
        },
        {
            "children" : [
                65
            ],
            "name" : "Bone.066",
            "scale" : [
                1,
                0.9999999403953552,
                1
            ],
            "translation" : [
                0,
                0.028965115547180176,
                0
            ]
        },
        {
            "children" : [
                66
            ],
            "name" : "Bone.067",
            "translation" : [
                0,
                0.028965294361114502,
                0
            ]
        },
        {
            "children" : [
                67
            ],
            "name" : "Bone.068",
            "translation" : [
                0,
                0.028965234756469727,
                0
            ]
        },
        {
            "children" : [
                68
            ],
            "name" : "Bone",
            "rotation" : [
                -0.7071068286895752,
                0,
                0,
                0.7071068286895752
            ],
            "translation" : [
                0,
                0,
                0.9999712705612183
            ]
        },
        {
            "mesh" : 0,
            "name" : "Sphere",
            "skin" : 0
        },
        {
            "children" : [
                70,
                69
            ],
            "name" : "Armature"
        }
    ],
    "meshes" : [
        {
            "name" : "Sphere",
            "primitives" : [
                {
                    "attributes" : {
                        "POSITION" : 0,
                        "NORMAL" : 1,
                        "TEXCOORD_0" : 2,
                        "JOINTS_0" : 3,
                        "WEIGHTS_0" : 4
                    },
                    "indices" : 5
                }
            ]
        }
    ],
    "skins" : [
        {
            "inverseBindMatrices" : 6,
            "joints" : [
                69,
                68,
                67,
                66,
                65,
                64,
                63,
                62,
                61,
                60,
                59,
                58,
                57,
                56,
                55,
                54,
                53,
                52,
                51,
                50,
                49,
                48,
                47,
                46,
                45,
                44,
                43,
                42,
                41,
                40,
                39,
                38,
                37,
                36,
                35,
                34,
                33,
                32,
                31,
                30,
                29,
                28,
                27,
                26,
                25,
                24,
                23,
                22,
                21,
                20,
                19,
                18,
                17,
                16,
                15,
                14,
                13,
                12,
                11,
                10,
                9,
                8,
                7,
                6,
                5,
                4,
                3,
                2,
                1,
                0
            ],
            "name" : "Armature"
        }
    ],
    "accessors" : [
        {
            "bufferView" : 0,
            "componentType" : 5126,
            "count" : 1351,
            "max" : [
                0.5703817009925842,
                0.27771931886672974,
                1.0000009536743164
            ],
            "min" : [
                -0.5703816413879395,
                -0.27771931886672974,
                -1.43672513961792
            ],
            "type" : "VEC3"
        },
        {
            "bufferView" : 1,
            "componentType" : 5126,
            "count" : 1351,
            "type" : "VEC3"
        },
        {
            "bufferView" : 2,
            "componentType" : 5126,
            "count" : 1351,
            "type" : "VEC2"
        },
        {
            "bufferView" : 3,
            "componentType" : 5121,
            "count" : 1351,
            "type" : "VEC4"
        },
        {
            "bufferView" : 4,
            "componentType" : 5126,
            "count" : 1351,
            "type" : "VEC4"
        },
        {
            "bufferView" : 5,
            "componentType" : 5123,
            "count" : 7002,
            "type" : "SCALAR"
        },
        {
            "bufferView" : 6,
            "componentType" : 5126,
            "count" : 70,
            "type" : "MAT4"
        }
    ],
    "bufferViews" : [
        {
            "buffer" : 0,
            "byteLength" : 16212,
            "byteOffset" : 0
        },
        {
            "buffer" : 0,
            "byteLength" : 16212,
            "byteOffset" : 16212
        },
        {
            "buffer" : 0,
            "byteLength" : 10808,
            "byteOffset" : 32424
        },
        {
            "buffer" : 0,
            "byteLength" : 5404,
            "byteOffset" : 43232
        },
        {
            "buffer" : 0,
            "byteLength" : 21616,
            "byteOffset" : 48636
        },
        {
            "buffer" : 0,
            "byteLength" : 14004,
            "byteOffset" : 70252
        },
        {
            "buffer" : 0,
            "byteLength" : 4480,
            "byteOffset" : 84256
        }
    ],
    "buffers" : [
        {
            "byteLength" : 88736,
            "uri" : "tongue.bin"
        }
    ]
}
